# xmcd
#
# Track frame offsets:
#	150
#	2770
#	82107
#	104352
#	207420
#
# Disc length: 2862 seconds
#
# Revision: 1
# Processed by: cddbd v1.5PL3 Copyright (c) Steve Scherf et al.
# Submitted via: CDex 1.50Beta5
#
DISCID=3b0b2c05
DTITLE=Various Artist - しあわせのかたち 番外編
DYEAR=1900
DGENRE=Soundtrack
TTITLE0=オープニング
TTITLE1=担任ぶくろの緒が切れた
TTITLE2=CD対談 "法華の太鼓"・"OH!・Va!・3・ハリケーン"
TTITLE3=清潔学園ドラマ "うつろひの朝"
TTITLE4=エンディング・"しあわせのかたち"
EXTD=
EXTT0=
EXTT1=
EXTT2=
EXTT3=
EXTT4=
PLAYORDER=
